<svg xmlns="http://www.w3.org/2000/svg" xmlns:xlink="http://www.w3.org/1999/xlink" viewBox="0 0 1709.53 1110.47"><defs><style>.cls-1{fill:none;}.cls-2{fill:url(#linear-gradient);}.cls-3{clip-path:url(#clip-path);}.cls-4{fill:url(#linear-gradient-2);}.cls-5{fill:url(#linear-gradient-3);}</style><linearGradient id="linear-gradient" x1="707.23" y1="411.86" x2="1341.32" y2="1123.27" gradientUnits="userSpaceOnUse"><stop offset="0.6" stop-color="#2f1761"/><stop offset="0.65" stop-color="#351762"/><stop offset="0.71" stop-color="#451767"/><stop offset="0.78" stop-color="#60176d"/><stop offset="0.84" stop-color="#7e1775"/><stop offset="0.93" stop-color="#9d177d"/><stop offset="1" stop-color="#b51783"/></linearGradient><clipPath id="clip-path"><path class="cls-1" d="M957.65,177.2c-327.85,164.22-610.92,132.67-781,0C84.13,105.06,22.46,42.63,2,0H2V809.85s176.59-68,568.34,154c335.27,190,701,143,884.71,17.16,194.72-133.44,256.48-268.42,256.48-471,0-3.75,0-7.49-.13-11.2-6.86-295.19-302.66-495.39-580.75-396.15C1079,121.1,1021.24,145.34,957.65,177.2Z"/></clipPath><linearGradient id="linear-gradient-2" x1="896.8" y1="647.01" x2="1020.47" y2="891.1" gradientTransform="translate(1465.35 1256.45) rotate(-174.2)" gradientUnits="userSpaceOnUse"><stop offset="0" stop-color="#2f1761"/><stop offset="0.17" stop-color="#351762"/><stop offset="0.38" stop-color="#451767"/><stop offset="0.63" stop-color="#60176d"/><stop offset="0.84" stop-color="#7e1775"/><stop offset="0.93" stop-color="#9d177d"/><stop offset="1" stop-color="#b51783"/></linearGradient><linearGradient id="linear-gradient-3" x1="959.38" y1="972.81" x2="1229.38" y2="1042.72" gradientUnits="userSpaceOnUse"><stop offset="0.03" stop-color="#2f1761"/><stop offset="1" stop-color="#512978"/></linearGradient></defs><title>blob-banner-2_1</title><g id="Layer_2" data-name="Layer 2"><g id="banner"><path class="cls-2" d="M955.65,177.2c-327.85,164.22-610.92,132.67-781,0C82.13,105.06,20.46,42.63,0,0H0V809.85s176.59-68,568.34,154c331,187.57,705.29,140.11,884.71,17.16,194.72-133.44,256.48-268.42,256.48-471,0-3.75,0-7.49-.13-11.2-6.86-295.19-302.66-495.39-580.75-396.15C1077,121.1,1019.24,145.34,955.65,177.2Z"/><g class="cls-3"><path class="cls-4" d="M333.68,425.75C466.35,280.86,814,188.67,1018.39,375.85s111.27,500-21.41,644.93S591,1131.38,386.62,944.19,201,570.64,333.68,425.75Z"/><path class="cls-5" d="M1304.49,967.23a134.46,134.46,0,0,0-29.48,3.3c-48.74-102-152.84-172.4-273.39-172.4-167.27,0-302.87,135.6-302.87,302.87h739.51A133.77,133.77,0,0,0,1304.49,967.23Z"/></g></g></g></svg>