<svg xmlns="http://www.w3.org/2000/svg" viewBox="0 0 101 101"><defs><style>.cls-1{fill:#00c200;}.cls-2{fill:#fff;}.cls-3{fill:#00c500;}</style></defs><title>icon-line</title><g id="Layer_2" data-name="Layer 2"><g id="text"><rect class="cls-1" width="101" height="101" rx="18.08"/><path class="cls-2" d="M87.16,48.67a18.62,18.62,0,0,0,.29-2.24c.06-1,0-2.42,0-2.87-.9-15.6-17.09-28-36.93-28-20.42,0-37,13.17-37,29.41,0,15,14.16,27.4,32.43,29.18A1.68,1.68,0,0,1,47.44,76l-.87,7.88A1.68,1.68,0,0,0,49,85.54C64.6,78.07,73.9,70.37,79.43,63.7c1-1.19,4.24-5.74,4.9-6.93A24.67,24.67,0,0,0,87.16,48.67Z"/><path class="cls-3" d="M31.84,50.88a1.68,1.68,0,0,1-1.68-1.68V38.5a1.88,1.88,0,0,0-1.89-1.89h0a1.89,1.89,0,0,0-1.89,1.89V53a1.68,1.68,0,0,0,1.68,1.67h7.78a1.89,1.89,0,0,0,1.89-1.89h0a1.89,1.89,0,0,0-1.89-1.89Z"/><path class="cls-3" d="M41.63,54.66H41.2A1.68,1.68,0,0,1,39.52,53V38.28a1.68,1.68,0,0,1,1.68-1.67h.43a1.67,1.67,0,0,1,1.67,1.67V53A1.67,1.67,0,0,1,41.63,54.66Z"/><path class="cls-3" d="M57.11,38.5v3.77a1.68,1.68,0,0,1-3,1c-2.12-2.76-4.59-6-4.66-6A2,2,0,0,0,46.89,37a1.63,1.63,0,0,0-.75,1.4V52.77A1.89,1.89,0,0,0,48,54.66h0a1.88,1.88,0,0,0,1.89-1.89V49a1.68,1.68,0,0,1,3-1c2.16,2.79,4.71,6.09,4.77,6.15a2,2,0,0,0,2.4.2,1.65,1.65,0,0,0,.79-1.43V38.5A1.89,1.89,0,0,0,59,36.61h0A1.88,1.88,0,0,0,57.11,38.5Z"/><path class="cls-3" d="M75.07,38.5h0a1.89,1.89,0,0,0-1.89-1.89H65.4a1.68,1.68,0,0,0-1.68,1.67V53a1.68,1.68,0,0,0,1.68,1.67h7.78a1.89,1.89,0,0,0,1.89-1.89h0a1.89,1.89,0,0,0-1.89-1.89h-4a1.68,1.68,0,0,1-1.67-1.68h0a1.67,1.67,0,0,1,1.67-1.67h4a1.9,1.9,0,0,0,1.89-1.9h0a1.89,1.89,0,0,0-1.89-1.89h-4a1.67,1.67,0,0,1-1.67-1.67h0a1.68,1.68,0,0,1,1.67-1.68h4A1.89,1.89,0,0,0,75.07,38.5Z"/></g></g></svg>